<svg width="359px" height="338px"
 viewBox="0.00 0.00 358.63 338.00" xmlns="http://www.w3.org/2000/svg" xmlns:xlink="http://www.w3.org/1999/xlink">
<g id="graph0" class="graph" transform="scale(1.0 1.0) rotate(0) translate(4 334)">
<title>de.uniks.stp.model</title>
<polygon fill="white" stroke="transparent" points="-4,4 -4,-334 354.63,-334 354.63,4 -4,4"/>
<!-- Categories -->
<g id="node1" class="node">
<title>Categories</title>
<polygon fill="none" stroke="black" points="71.5,-42.5 71.5,-64.5 148.5,-64.5 148.5,-42.5 71.5,-42.5"/>
<text text-anchor="start" x="80.07" y="-48.9" font-family="Times,serif" font-size="14.00">Categories</text>
<polygon fill="none" stroke="black" points="71.5,-3.5 71.5,-42.5 148.5,-42.5 148.5,-3.5 71.5,-3.5"/>
<text text-anchor="start" x="74.5" y="-26.9" font-family="Times,serif" font-size="14.00">name :String</text>
<text text-anchor="start" x="74.5" y="-10.1" font-family="Times,serif" font-size="14.00">id :String</text>
</g>
<!-- Channel -->
<g id="node2" class="node">
<title>Channel</title>
<polygon fill="none" stroke="black" points="8.5,-181.5 8.5,-203.5 173.5,-203.5 173.5,-181.5 8.5,-181.5"/>
<text text-anchor="start" x="67.67" y="-187.9" font-family="Times,serif" font-size="14.00">Channel</text>
<polygon fill="none" stroke="black" points="8.5,-108.5 8.5,-181.5 173.5,-181.5 173.5,-108.5 8.5,-108.5"/>
<text text-anchor="start" x="11.5" y="-165.9" font-family="Times,serif" font-size="14.00">name :String</text>
<text text-anchor="start" x="11.5" y="-149.1" font-family="Times,serif" font-size="14.00">id :String</text>
<text text-anchor="start" x="11.5" y="-132.3" font-family="Times,serif" font-size="14.00">unreadMessagesCounter :int</text>
<text text-anchor="start" x="11.5" y="-115.5" font-family="Times,serif" font-size="14.00">privilege :boolean</text>
</g>
<!-- Categories&#45;&gt;Channel -->
<g id="edge1" class="edge">
<title>Categories&#45;&gt;Channel</title>
<path fill="none" stroke="black" d="M104.16,-69.25C102.4,-80.34 100.41,-92.92 98.5,-104.98"/>
<text text-anchor="middle" x="71.48" y="-92.38" font-family="Times,serif" font-size="14.00">channel *</text>
<text text-anchor="middle" x="75.78" y="-73.45" font-family="Times,serif" font-size="14.00">categories</text>
</g>
<!-- Server -->
<g id="node5" class="node">
<title>Server</title>
<polygon fill="none" stroke="black" points="207.5,-173.5 207.5,-195.5 289.5,-195.5 289.5,-173.5 207.5,-173.5"/>
<text text-anchor="start" x="230.23" y="-179.9" font-family="Times,serif" font-size="14.00">Server</text>
<polygon fill="none" stroke="black" points="207.5,-117.5 207.5,-173.5 289.5,-173.5 289.5,-117.5 207.5,-117.5"/>
<text text-anchor="start" x="210.5" y="-157.9" font-family="Times,serif" font-size="14.00">name :String</text>
<text text-anchor="start" x="210.5" y="-141.1" font-family="Times,serif" font-size="14.00">id :String</text>
<text text-anchor="start" x="210.5" y="-124.3" font-family="Times,serif" font-size="14.00">owner :String</text>
</g>
<!-- Categories&#45;&gt;Server -->
<g id="edge2" class="edge">
<title>Categories&#45;&gt;Server</title>
<path fill="none" stroke="black" d="M148.59,-69.25C164.49,-82.97 183.03,-98.98 199.8,-113.45"/>
<text text-anchor="middle" x="216.9" y="-100.85" font-family="Times,serif" font-size="14.00">server</text>
<text text-anchor="middle" x="182.21" y="-73.45" font-family="Times,serif" font-size="14.00">categories *</text>
</g>
<!-- Message -->
<g id="node4" class="node">
<title>Message</title>
<polygon fill="none" stroke="black" points="43.5,-304 43.5,-326 138.5,-326 138.5,-304 43.5,-304"/>
<text text-anchor="start" x="66.51" y="-310.4" font-family="Times,serif" font-size="14.00">Message</text>
<polygon fill="none" stroke="black" points="43.5,-248 43.5,-304 138.5,-304 138.5,-248 43.5,-248"/>
<text text-anchor="start" x="46.5" y="-288.4" font-family="Times,serif" font-size="14.00">from :String</text>
<text text-anchor="start" x="46.5" y="-271.6" font-family="Times,serif" font-size="14.00">timestamp :int</text>
<text text-anchor="start" x="46.5" y="-254.8" font-family="Times,serif" font-size="14.00">message :String</text>
</g>
<!-- Channel&#45;&gt;Message -->
<g id="edge3" class="edge">
<title>Channel&#45;&gt;Message</title>
<path fill="none" stroke="black" d="M90.5,-208.29C90.5,-220.07 90.5,-232.49 90.5,-243.86"/>
<text text-anchor="middle" x="61.54" y="-231.26" font-family="Times,serif" font-size="14.00">message *</text>
<text text-anchor="middle" x="68.73" y="-212.49" font-family="Times,serif" font-size="14.00">channel</text>
</g>
<!-- User -->
<g id="node6" class="node">
<title>User</title>
<polygon fill="none" stroke="black" points="204.5,-304 204.5,-326 293.5,-326 293.5,-304 204.5,-304"/>
<text text-anchor="start" x="235.79" y="-310.4" font-family="Times,serif" font-size="14.00">User</text>
<polygon fill="none" stroke="black" points="204.5,-248 204.5,-304 293.5,-304 293.5,-248 204.5,-248"/>
<text text-anchor="start" x="207.5" y="-288.4" font-family="Times,serif" font-size="14.00">name :String</text>
<text text-anchor="start" x="207.5" y="-271.6" font-family="Times,serif" font-size="14.00">id :String</text>
<text text-anchor="start" x="207.5" y="-254.8" font-family="Times,serif" font-size="14.00">status :boolean</text>
</g>
<!-- Channel&#45;&gt;User -->
<g id="edge7" class="edge">
<title>Channel&#45;&gt;User</title>
<path fill="none" stroke="black" d="M152.95,-208.29C167.44,-220.07 182.71,-232.49 196.68,-243.86"/>
<text text-anchor="middle" x="147.12" y="-231.26" font-family="Times,serif" font-size="14.00">privilegedUsers *</text>
<text text-anchor="middle" x="186.58" y="-212.49" font-family="Times,serif" font-size="14.00">privileged *</text>
</g>
<!-- CurrentUser -->
<g id="node3" class="node">
<title>CurrentUser</title>
<polygon fill="none" stroke="black" points="201.5,-42.5 201.5,-64.5 295.5,-64.5 295.5,-42.5 201.5,-42.5"/>
<text text-anchor="start" x="213.91" y="-48.9" font-family="Times,serif" font-size="14.00">CurrentUser</text>
<polygon fill="none" stroke="black" points="201.5,-3.5 201.5,-42.5 295.5,-42.5 295.5,-3.5 201.5,-3.5"/>
<text text-anchor="start" x="204.5" y="-26.9" font-family="Times,serif" font-size="14.00">name :String</text>
<text text-anchor="start" x="204.5" y="-10.1" font-family="Times,serif" font-size="14.00">userKey :String</text>
</g>
<!-- CurrentUser&#45;&gt;Channel -->
<g id="edge4" class="edge">
<title>CurrentUser&#45;&gt;Channel</title>
<path fill="none" stroke="black" d="M204.07,-69.25C189.46,-80.34 172.9,-92.92 157.02,-104.98"/>
<text text-anchor="middle" x="194.93" y="-92.38" font-family="Times,serif" font-size="14.00">privateChat *</text>
<text text-anchor="middle" x="237.1" y="-73.45" font-family="Times,serif" font-size="14.00">currentUser</text>
</g>
<!-- CurrentUser&#45;&gt;Server -->
<g id="edge5" class="edge">
<title>CurrentUser&#45;&gt;Server</title>
<path fill="none" stroke="black" d="M248.5,-69.25C248.5,-82.97 248.5,-98.98 248.5,-113.45"/>
<text text-anchor="middle" x="270.85" y="-100.85" font-family="Times,serif" font-size="14.00">server *</text>
<text text-anchor="middle" x="281.53" y="-73.45" font-family="Times,serif" font-size="14.00">currentUser</text>
</g>
<!-- CurrentUser&#45;&gt;User -->
<g id="edge6" class="edge">
<title>CurrentUser&#45;&gt;User</title>
<path fill="none" stroke="black" d="M284.56,-69.21C293.46,-79.72 301.79,-92 306.5,-105 322.1,-148.04 320.89,-164.54 306.5,-208 302.31,-220.66 295.18,-232.93 287.33,-243.85"/>
<text text-anchor="middle" x="270.42" y="-231.25" font-family="Times,serif" font-size="14.00">user *</text>
<text text-anchor="middle" x="317.6" y="-56.61" font-family="Times,serif" font-size="14.00">currentUser</text>
</g>
<!-- Server&#45;&gt;User -->
<g id="edge8" class="edge">
<title>Server&#45;&gt;User</title>
<path fill="none" stroke="black" d="M248.5,-199.58C248.5,-213.78 248.5,-229.62 248.5,-243.83"/>
<text text-anchor="middle" x="231.59" y="-231.23" font-family="Times,serif" font-size="14.00">user *</text>
<text text-anchor="middle" x="270.85" y="-203.78" font-family="Times,serif" font-size="14.00">server *</text>
</g>
</g>
</svg>
