<svg width="418px" height="633px"
 viewBox="0.00 0.00 417.50 633.00" xmlns="http://www.w3.org/2000/svg" xmlns:xlink="http://www.w3.org/1999/xlink">
<g id="graph0" class="graph" transform="scale(1.0 1.0) rotate(0) translate(4 629)">
<title>de.uniks.stp.model</title>
<polygon fill="white" stroke="transparent" points="-4,4 -4,-629 413.5,-629 413.5,4 -4,4"/>
<!-- Categories -->
<g id="node1" class="node">
<title>Categories</title>
<polygon fill="none" stroke="black" points="108,-51 108,-73 185,-73 185,-51 108,-51"/>
<text text-anchor="start" x="116.57" y="-57.4" font-family="Times,serif" font-size="14.00">Categories</text>
<polygon fill="none" stroke="black" points="108,-12 108,-51 185,-51 185,-12 108,-12"/>
<text text-anchor="start" x="111" y="-35.4" font-family="Times,serif" font-size="14.00">name :String</text>
<text text-anchor="start" x="111" y="-18.6" font-family="Times,serif" font-size="14.00">id :String</text>
</g>
<!-- Server -->
<g id="node5" class="node">
<title>Server</title>
<polygon fill="none" stroke="black" points="8,-477 8,-499 90,-499 90,-477 8,-477"/>
<text text-anchor="start" x="30.73" y="-483.4" font-family="Times,serif" font-size="14.00">Server</text>
<polygon fill="none" stroke="black" points="8,-421 8,-477 90,-477 90,-421 8,-421"/>
<text text-anchor="start" x="11" y="-461.4" font-family="Times,serif" font-size="14.00">name :String</text>
<text text-anchor="start" x="11" y="-444.6" font-family="Times,serif" font-size="14.00">id :String</text>
<text text-anchor="start" x="11" y="-427.8" font-family="Times,serif" font-size="14.00">owner :String</text>
</g>
<!-- Categories&#45;&gt;Server -->
<g id="edge1" class="edge">
<title>Categories&#45;&gt;Server</title>
<path fill="none" stroke="black" d="M128.12,-77.81C121.62,-91.26 114.71,-107.07 110,-122 77.38,-225.34 60.29,-352.34 53.15,-416.94"/>
<text text-anchor="middle" x="36.05" y="-404.34" font-family="Times,serif" font-size="14.00">server</text>
<text text-anchor="middle" x="94.5" y="-82.01" font-family="Times,serif" font-size="14.00">categories *</text>
</g>
<!-- ServerChannel -->
<g id="node6" class="node">
<title>ServerChannel</title>
<polygon fill="none" stroke="black" points="128,-216 128,-238 293,-238 293,-216 128,-216"/>
<text text-anchor="start" x="168.91" y="-222.4" font-family="Times,serif" font-size="14.00">ServerChannel</text>
<polygon fill="none" stroke="black" points="128,-126 128,-216 293,-216 293,-126 128,-126"/>
<text text-anchor="start" x="131" y="-200.4" font-family="Times,serif" font-size="14.00">name :String</text>
<text text-anchor="start" x="131" y="-183.6" font-family="Times,serif" font-size="14.00">id :String</text>
<text text-anchor="start" x="131" y="-166.8" font-family="Times,serif" font-size="14.00">unreadMessagesCounter :int</text>
<text text-anchor="start" x="131" y="-150" font-family="Times,serif" font-size="14.00">privilege :boolean</text>
<text text-anchor="start" x="131" y="-133.2" font-family="Times,serif" font-size="14.00">type :String</text>
</g>
<!-- Categories&#45;&gt;ServerChannel -->
<g id="edge2" class="edge">
<title>Categories&#45;&gt;ServerChannel</title>
<path fill="none" stroke="black" d="M161.66,-77.51C167.91,-90.9 175.3,-106.73 182.4,-121.92"/>
<text text-anchor="middle" x="155.38" y="-109.32" font-family="Times,serif" font-size="14.00">channel *</text>
<text text-anchor="middle" x="175.84" y="-81.71" font-family="Times,serif" font-size="14.00">categories</text>
</g>
<!-- CurrentUser -->
<g id="node2" class="node">
<title>CurrentUser</title>
<polygon fill="none" stroke="black" points="162,-354.5 162,-376.5 296,-376.5 296,-354.5 162,-354.5"/>
<text text-anchor="start" x="194.41" y="-360.9" font-family="Times,serif" font-size="14.00">CurrentUser</text>
<polygon fill="none" stroke="black" points="162,-281.5 162,-354.5 296,-354.5 296,-281.5 162,-281.5"/>
<text text-anchor="start" x="165" y="-338.9" font-family="Times,serif" font-size="14.00">name :String</text>
<text text-anchor="start" x="165" y="-322.1" font-family="Times,serif" font-size="14.00">userKey :String</text>
<text text-anchor="start" x="165" y="-305.3" font-family="Times,serif" font-size="14.00">password :String</text>
<text text-anchor="start" x="165" y="-288.5" font-family="Times,serif" font-size="14.00">doNotDisturb :boolean</text>
</g>
<!-- PrivateChat -->
<g id="node4" class="node">
<title>PrivateChat</title>
<polygon fill="none" stroke="black" points="237,-477 237,-499 402,-499 402,-477 237,-477"/>
<text text-anchor="start" x="286.45" y="-483.4" font-family="Times,serif" font-size="14.00">PrivateChat</text>
<polygon fill="none" stroke="black" points="237,-421 237,-477 402,-477 402,-421 237,-421"/>
<text text-anchor="start" x="240" y="-461.4" font-family="Times,serif" font-size="14.00">name :String</text>
<text text-anchor="start" x="240" y="-444.6" font-family="Times,serif" font-size="14.00">id :String</text>
<text text-anchor="start" x="240" y="-427.8" font-family="Times,serif" font-size="14.00">unreadMessagesCounter :int</text>
</g>
<!-- CurrentUser&#45;&gt;PrivateChat -->
<g id="edge4" class="edge">
<title>CurrentUser&#45;&gt;PrivateChat</title>
<path fill="none" stroke="black" d="M264.57,-381.29C272.82,-393.07 281.52,-405.49 289.48,-416.86"/>
<text text-anchor="middle" x="251.58" y="-404.26" font-family="Times,serif" font-size="14.00">privateChat *</text>
<text text-anchor="middle" x="231.54" y="-385.49" font-family="Times,serif" font-size="14.00">currentUser</text>
</g>
<!-- CurrentUser&#45;&gt;Server -->
<g id="edge5" class="edge">
<title>CurrentUser&#45;&gt;Server</title>
<path fill="none" stroke="black" d="M158.12,-381.1C138.05,-395.43 116.65,-410.71 98.17,-423.9"/>
<text text-anchor="middle" x="120.51" y="-411.3" font-family="Times,serif" font-size="14.00">server *</text>
<text text-anchor="middle" x="125.08" y="-385.3" font-family="Times,serif" font-size="14.00">currentUser</text>
</g>
<!-- User -->
<g id="node7" class="node">
<title>User</title>
<polygon fill="none" stroke="black" points="82,-599 82,-621 171,-621 171,-599 82,-599"/>
<text text-anchor="start" x="113.29" y="-605.4" font-family="Times,serif" font-size="14.00">User</text>
<polygon fill="none" stroke="black" points="82,-543 82,-599 171,-599 171,-543 82,-543"/>
<text text-anchor="start" x="85" y="-583.4" font-family="Times,serif" font-size="14.00">name :String</text>
<text text-anchor="start" x="85" y="-566.6" font-family="Times,serif" font-size="14.00">id :String</text>
<text text-anchor="start" x="85" y="-549.8" font-family="Times,serif" font-size="14.00">status :boolean</text>
</g>
<!-- CurrentUser&#45;&gt;User -->
<g id="edge6" class="edge">
<title>CurrentUser&#45;&gt;User</title>
<path fill="none" stroke="black" d="M208.16,-381.19C189.11,-427.51 161.27,-495.22 143.39,-538.7"/>
<text text-anchor="middle" x="126.48" y="-526.1" font-family="Times,serif" font-size="14.00">user *</text>
<text text-anchor="middle" x="191.64" y="-385.39" font-family="Times,serif" font-size="14.00">currentUser</text>
</g>
<!-- Message -->
<g id="node3" class="node">
<title>Message</title>
<polygon fill="none" stroke="black" points="221,-60 221,-82 317,-82 317,-60 221,-60"/>
<text text-anchor="start" x="244.51" y="-66.4" font-family="Times,serif" font-size="14.00">Message</text>
<polygon fill="none" stroke="black" points="221,-4 221,-60 317,-60 317,-4 221,-4"/>
<text text-anchor="start" x="224" y="-44.4" font-family="Times,serif" font-size="14.00">from :String</text>
<text text-anchor="start" x="224" y="-27.6" font-family="Times,serif" font-size="14.00">timestamp :long</text>
<text text-anchor="start" x="224" y="-10.8" font-family="Times,serif" font-size="14.00">message :String</text>
</g>
<!-- Message&#45;&gt;PrivateChat -->
<g id="edge7" class="edge">
<title>Message&#45;&gt;PrivateChat</title>
<path fill="none" stroke="black" d="M295.68,-86.3C301.49,-97.5 306.83,-109.86 310,-122 336.94,-225.21 330.08,-352.26 323.9,-416.91"/>
<text text-anchor="middle" x="356.55" y="-404.31" font-family="Times,serif" font-size="14.00">privateChat</text>
<text text-anchor="middle" x="266.72" y="-90.5" font-family="Times,serif" font-size="14.00">message *</text>
</g>
<!-- Message&#45;&gt;ServerChannel -->
<g id="edge8" class="edge">
<title>Message&#45;&gt;ServerChannel</title>
<path fill="none" stroke="black" d="M250.82,-86.22C245.97,-97.47 240.65,-109.82 235.5,-121.79"/>
<text text-anchor="middle" x="275.92" y="-109.19" font-family="Times,serif" font-size="14.00">serverChannel</text>
<text text-anchor="middle" x="221.85" y="-90.42" font-family="Times,serif" font-size="14.00">message *</text>
</g>
<!-- Server&#45;&gt;User -->
<g id="edge10" class="edge">
<title>Server&#45;&gt;User</title>
<path fill="none" stroke="black" d="M76.15,-503.31C83.51,-514.78 91.48,-527.2 98.84,-538.67"/>
<text text-anchor="middle" x="81.93" y="-526.07" font-family="Times,serif" font-size="14.00">user *</text>
<text text-anchor="middle" x="53.8" y="-507.51" font-family="Times,serif" font-size="14.00">server *</text>
</g>
<!-- ServerChannel&#45;&gt;CurrentUser -->
<g id="edge3" class="edge">
<title>ServerChannel&#45;&gt;CurrentUser</title>
<path fill="none" stroke="black" d="M217.73,-242.18C219.27,-253.98 220.87,-266.28 222.37,-277.76"/>
<text text-anchor="middle" x="189.34" y="-265.16" font-family="Times,serif" font-size="14.00">currentUser</text>
<text text-anchor="middle" x="190.71" y="-246.38" font-family="Times,serif" font-size="14.00">channel *</text>
</g>
<!-- ServerChannel&#45;&gt;User -->
<g id="edge9" class="edge">
<title>ServerChannel&#45;&gt;User</title>
<path fill="none" stroke="black" d="M162.5,-242.22C155.5,-253.55 149.23,-265.72 145,-278 114.39,-366.97 117.23,-479.18 121.75,-538.97"/>
<text text-anchor="middle" x="171.32" y="-526.37" font-family="Times,serif" font-size="14.00">privilegedUsers *</text>
<text text-anchor="middle" x="128.87" y="-246.42" font-family="Times,serif" font-size="14.00">privileged *</text>
</g>
</g>
</svg>
