<svg width="248px" height="338px"
 viewBox="0.00 0.00 247.50 338.00" xmlns="http://www.w3.org/2000/svg" xmlns:xlink="http://www.w3.org/1999/xlink">
<g id="graph0" class="graph" transform="scale(1.0 1.0) rotate(0) translate(4 334)">
<title>de.uniks.stp.model</title>
<polygon fill="white" stroke="transparent" points="-4,4 -4,-334 243.5,-334 243.5,4 -4,4"/>
<!-- Categories -->
<g id="node1" class="node">
<title>Categories</title>
<polygon fill="none" stroke="black" points="89.5,-42.5 89.5,-64.5 166.5,-64.5 166.5,-42.5 89.5,-42.5"/>
<text text-anchor="start" x="98.07" y="-48.9" font-family="Times,serif" font-size="14.00">Categories</text>
<polygon fill="none" stroke="black" points="89.5,-3.5 89.5,-42.5 166.5,-42.5 166.5,-3.5 89.5,-3.5"/>
<text text-anchor="start" x="92.5" y="-26.9" font-family="Times,serif" font-size="14.00">name :String</text>
<text text-anchor="start" x="92.5" y="-10.1" font-family="Times,serif" font-size="14.00">id :String</text>
</g>
<!-- Channel -->
<g id="node2" class="node">
<title>Channel</title>
<polygon fill="none" stroke="black" points="32.5,-156 32.5,-178 109.5,-178 109.5,-156 32.5,-156"/>
<text text-anchor="start" x="47.67" y="-162.4" font-family="Times,serif" font-size="14.00">Channel</text>
<polygon fill="none" stroke="black" points="32.5,-117 32.5,-156 109.5,-156 109.5,-117 32.5,-117"/>
<text text-anchor="start" x="35.5" y="-140.4" font-family="Times,serif" font-size="14.00">name :String</text>
<text text-anchor="start" x="35.5" y="-123.6" font-family="Times,serif" font-size="14.00">id :String</text>
</g>
<!-- Categories&#45;&gt;Channel -->
<g id="edge1" class="edge">
<title>Categories&#45;&gt;Channel</title>
<path fill="none" stroke="black" d="M110.24,-69.26C103.1,-83.23 94.83,-99.4 87.7,-113.36"/>
<text text-anchor="middle" x="60.68" y="-100.76" font-family="Times,serif" font-size="14.00">channel *</text>
<text text-anchor="middle" x="81.87" y="-73.46" font-family="Times,serif" font-size="14.00">categories</text>
</g>
<!-- Server -->
<g id="node4" class="node">
<title>Server</title>
<polygon fill="none" stroke="black" points="143.5,-165 143.5,-187 225.5,-187 225.5,-165 143.5,-165"/>
<text text-anchor="start" x="166.23" y="-171.4" font-family="Times,serif" font-size="14.00">Server</text>
<polygon fill="none" stroke="black" points="143.5,-109 143.5,-165 225.5,-165 225.5,-109 143.5,-109"/>
<text text-anchor="start" x="146.5" y="-149.4" font-family="Times,serif" font-size="14.00">name :String</text>
<text text-anchor="start" x="146.5" y="-132.6" font-family="Times,serif" font-size="14.00">id :String</text>
<text text-anchor="start" x="146.5" y="-115.8" font-family="Times,serif" font-size="14.00">owner :String</text>
</g>
<!-- Categories&#45;&gt;Server -->
<g id="edge2" class="edge">
<title>Categories&#45;&gt;Server</title>
<path fill="none" stroke="black" d="M144.76,-69.26C150.46,-80.41 156.87,-92.96 162.86,-104.67"/>
<text text-anchor="middle" x="145.76" y="-92.07" font-family="Times,serif" font-size="14.00">server</text>
<text text-anchor="middle" x="178.38" y="-73.46" font-family="Times,serif" font-size="14.00">categories *</text>
</g>
<!-- Message -->
<g id="node3" class="node">
<title>Message</title>
<polygon fill="none" stroke="black" points="8.5,-295.5 8.5,-317.5 103.5,-317.5 103.5,-295.5 8.5,-295.5"/>
<text text-anchor="start" x="31.51" y="-301.9" font-family="Times,serif" font-size="14.00">Message</text>
<polygon fill="none" stroke="black" points="8.5,-239.5 8.5,-295.5 103.5,-295.5 103.5,-239.5 8.5,-239.5"/>
<text text-anchor="start" x="11.5" y="-279.9" font-family="Times,serif" font-size="14.00">from :String</text>
<text text-anchor="start" x="11.5" y="-263.1" font-family="Times,serif" font-size="14.00">timestap :int</text>
<text text-anchor="start" x="11.5" y="-246.3" font-family="Times,serif" font-size="14.00">message :String</text>
</g>
<!-- Channel&#45;&gt;Message -->
<g id="edge3" class="edge">
<title>Channel&#45;&gt;Message</title>
<path fill="none" stroke="black" d="M66.56,-182.76C64.68,-198.82 62.42,-218.19 60.43,-235.22"/>
<text text-anchor="middle" x="31.47" y="-222.62" font-family="Times,serif" font-size="14.00">message *</text>
<text text-anchor="middle" x="44.79" y="-186.96" font-family="Times,serif" font-size="14.00">channel</text>
</g>
<!-- User -->
<g id="node5" class="node">
<title>User</title>
<polygon fill="none" stroke="black" points="137.5,-303.5 137.5,-325.5 231.5,-325.5 231.5,-303.5 137.5,-303.5"/>
<text text-anchor="start" x="171.29" y="-309.9" font-family="Times,serif" font-size="14.00">User</text>
<polygon fill="none" stroke="black" points="137.5,-230.5 137.5,-303.5 231.5,-303.5 231.5,-230.5 137.5,-230.5"/>
<text text-anchor="start" x="140.5" y="-287.9" font-family="Times,serif" font-size="14.00">name :String</text>
<text text-anchor="start" x="140.5" y="-271.1" font-family="Times,serif" font-size="14.00">id :String</text>
<text text-anchor="start" x="140.5" y="-254.3" font-family="Times,serif" font-size="14.00">userKey :String</text>
<text text-anchor="start" x="140.5" y="-237.5" font-family="Times,serif" font-size="14.00">status :boolean</text>
</g>
<!-- Channel&#45;&gt;User -->
<g id="edge4" class="edge">
<title>Channel&#45;&gt;User</title>
<path fill="none" stroke="black" d="M100.45,-182.76C112.33,-196.15 126.24,-211.83 139.29,-226.54"/>
<text text-anchor="middle" x="127.63" y="-213.94" font-family="Times,serif" font-size="14.00">user</text>
<text text-anchor="middle" x="100.45" y="-186.96" font-family="Times,serif" font-size="14.00">privateChat *</text>
</g>
<!-- Server&#45;&gt;User -->
<g id="edge5" class="edge">
<title>Server&#45;&gt;User</title>
<path fill="none" stroke="black" d="M184.5,-191.08C184.5,-202.49 184.5,-214.98 184.5,-226.82"/>
<text text-anchor="middle" x="167.59" y="-214.22" font-family="Times,serif" font-size="14.00">user *</text>
<text text-anchor="middle" x="162.15" y="-195.28" font-family="Times,serif" font-size="14.00">server *</text>
</g>
</g>
</svg>
