<svg width="393px" height="633px"
 viewBox="0.00 0.00 392.50 633.00" xmlns="http://www.w3.org/2000/svg" xmlns:xlink="http://www.w3.org/1999/xlink">
<g id="graph0" class="graph" transform="scale(1.0 1.0) rotate(0) translate(4 629)">
<title>de.uniks.stp.model</title>
<polygon fill="white" stroke="transparent" points="-4,4 -4,-629 388.5,-629 388.5,4 -4,4"/>
<!-- Categories -->
<g id="node1" class="node">
<title>Categories</title>
<polygon fill="none" stroke="black" points="72,-59.5 72,-81.5 149,-81.5 149,-59.5 72,-59.5"/>
<text text-anchor="start" x="80.57" y="-65.9" font-family="Times,serif" font-size="14.00">Categories</text>
<polygon fill="none" stroke="black" points="72,-20.5 72,-59.5 149,-59.5 149,-20.5 72,-20.5"/>
<text text-anchor="start" x="75" y="-43.9" font-family="Times,serif" font-size="14.00">name :String</text>
<text text-anchor="start" x="75" y="-27.1" font-family="Times,serif" font-size="14.00">id :String</text>
</g>
<!-- Server -->
<g id="node5" class="node">
<title>Server</title>
<polygon fill="none" stroke="black" points="8,-477 8,-499 90,-499 90,-477 8,-477"/>
<text text-anchor="start" x="30.73" y="-483.4" font-family="Times,serif" font-size="14.00">Server</text>
<polygon fill="none" stroke="black" points="8,-421 8,-477 90,-477 90,-421 8,-421"/>
<text text-anchor="start" x="11" y="-461.4" font-family="Times,serif" font-size="14.00">name :String</text>
<text text-anchor="start" x="11" y="-444.6" font-family="Times,serif" font-size="14.00">id :String</text>
<text text-anchor="start" x="11" y="-427.8" font-family="Times,serif" font-size="14.00">owner :String</text>
</g>
<!-- Categories&#45;&gt;Server -->
<g id="edge1" class="edge">
<title>Categories&#45;&gt;Server</title>
<path fill="none" stroke="black" d="M94.08,-86.28C87.38,-101.97 80.18,-121.09 76,-139 53.19,-236.73 49.11,-355.23 48.69,-416.98"/>
<text text-anchor="middle" x="31.6" y="-404.38" font-family="Times,serif" font-size="14.00">server</text>
<text text-anchor="middle" x="60.46" y="-90.48" font-family="Times,serif" font-size="14.00">categories *</text>
</g>
<!-- ServerChannel -->
<g id="node6" class="node">
<title>ServerChannel</title>
<polygon fill="none" stroke="black" points="94,-233 94,-255 259,-255 259,-233 94,-233"/>
<text text-anchor="start" x="134.91" y="-239.4" font-family="Times,serif" font-size="14.00">ServerChannel</text>
<polygon fill="none" stroke="black" points="94,-143 94,-233 259,-233 259,-143 94,-143"/>
<text text-anchor="start" x="97" y="-217.4" font-family="Times,serif" font-size="14.00">name :String</text>
<text text-anchor="start" x="97" y="-200.6" font-family="Times,serif" font-size="14.00">id :String</text>
<text text-anchor="start" x="97" y="-183.8" font-family="Times,serif" font-size="14.00">unreadMessagesCounter :int</text>
<text text-anchor="start" x="97" y="-167" font-family="Times,serif" font-size="14.00">privilege :boolean</text>
<text text-anchor="start" x="97" y="-150.2" font-family="Times,serif" font-size="14.00">type :String</text>
</g>
<!-- Categories&#45;&gt;ServerChannel -->
<g id="edge2" class="edge">
<title>Categories&#45;&gt;ServerChannel</title>
<path fill="none" stroke="black" d="M125.31,-86.25C132.39,-101.86 141.02,-120.88 149.13,-138.77"/>
<text text-anchor="middle" x="122.11" y="-126.17" font-family="Times,serif" font-size="14.00">channel *</text>
<text text-anchor="middle" x="153.68" y="-90.45" font-family="Times,serif" font-size="14.00">categories</text>
</g>
<!-- CurrentUser -->
<g id="node2" class="node">
<title>CurrentUser</title>
<polygon fill="none" stroke="black" points="162,-355 162,-377 262,-377 262,-355 162,-355"/>
<text text-anchor="start" x="177.41" y="-361.4" font-family="Times,serif" font-size="14.00">CurrentUser</text>
<polygon fill="none" stroke="black" points="162,-299 162,-355 262,-355 262,-299 162,-299"/>
<text text-anchor="start" x="165" y="-339.4" font-family="Times,serif" font-size="14.00">name :String</text>
<text text-anchor="start" x="165" y="-322.6" font-family="Times,serif" font-size="14.00">userKey :String</text>
<text text-anchor="start" x="165" y="-305.8" font-family="Times,serif" font-size="14.00">password :String</text>
</g>
<!-- PrivateChat -->
<g id="node4" class="node">
<title>PrivateChat</title>
<polygon fill="none" stroke="black" points="212,-477 212,-499 377,-499 377,-477 212,-477"/>
<text text-anchor="start" x="261.45" y="-483.4" font-family="Times,serif" font-size="14.00">PrivateChat</text>
<polygon fill="none" stroke="black" points="212,-421 212,-477 377,-477 377,-421 212,-421"/>
<text text-anchor="start" x="215" y="-461.4" font-family="Times,serif" font-size="14.00">name :String</text>
<text text-anchor="start" x="215" y="-444.6" font-family="Times,serif" font-size="14.00">id :String</text>
<text text-anchor="start" x="215" y="-427.8" font-family="Times,serif" font-size="14.00">unreadMessagesCounter :int</text>
</g>
<!-- CurrentUser&#45;&gt;PrivateChat -->
<g id="edge4" class="edge">
<title>CurrentUser&#45;&gt;PrivateChat</title>
<path fill="none" stroke="black" d="M240.91,-381.31C248.75,-392.78 257.24,-405.2 265.07,-416.67"/>
<text text-anchor="middle" x="227.17" y="-404.07" font-family="Times,serif" font-size="14.00">privateChat *</text>
<text text-anchor="middle" x="207.88" y="-385.51" font-family="Times,serif" font-size="14.00">currentUser</text>
</g>
<!-- CurrentUser&#45;&gt;Server -->
<g id="edge5" class="edge">
<title>CurrentUser&#45;&gt;Server</title>
<path fill="none" stroke="black" d="M154.53,-381.31C136.11,-394.87 115.89,-409.76 98.12,-422.84"/>
<text text-anchor="middle" x="120.46" y="-410.24" font-family="Times,serif" font-size="14.00">server *</text>
<text text-anchor="middle" x="121.5" y="-368.71" font-family="Times,serif" font-size="14.00">currentUser</text>
</g>
<!-- User -->
<g id="node7" class="node">
<title>User</title>
<polygon fill="none" stroke="black" points="82,-599 82,-621 171,-621 171,-599 82,-599"/>
<text text-anchor="start" x="113.29" y="-605.4" font-family="Times,serif" font-size="14.00">User</text>
<polygon fill="none" stroke="black" points="82,-543 82,-599 171,-599 171,-543 82,-543"/>
<text text-anchor="start" x="85" y="-583.4" font-family="Times,serif" font-size="14.00">name :String</text>
<text text-anchor="start" x="85" y="-566.6" font-family="Times,serif" font-size="14.00">id :String</text>
<text text-anchor="start" x="85" y="-549.8" font-family="Times,serif" font-size="14.00">status :boolean</text>
</g>
<!-- CurrentUser&#45;&gt;User -->
<g id="edge6" class="edge">
<title>CurrentUser&#45;&gt;User</title>
<path fill="none" stroke="black" d="M197.02,-381.15C181.28,-425.44 156.68,-494.67 140.95,-538.92"/>
<text text-anchor="middle" x="157.86" y="-526.32" font-family="Times,serif" font-size="14.00">user *</text>
<text text-anchor="middle" x="163.99" y="-385.35" font-family="Times,serif" font-size="14.00">currentUser</text>
</g>
<!-- Message -->
<g id="node3" class="node">
<title>Message</title>
<polygon fill="none" stroke="black" points="212,-76.5 212,-98.5 308,-98.5 308,-76.5 212,-76.5"/>
<text text-anchor="start" x="235.51" y="-82.9" font-family="Times,serif" font-size="14.00">Message</text>
<polygon fill="none" stroke="black" points="212,-3.5 212,-76.5 308,-76.5 308,-3.5 212,-3.5"/>
<text text-anchor="start" x="215" y="-60.9" font-family="Times,serif" font-size="14.00">from :String</text>
<text text-anchor="start" x="215" y="-44.1" font-family="Times,serif" font-size="14.00">timestamp :long</text>
<text text-anchor="start" x="215" y="-27.3" font-family="Times,serif" font-size="14.00">message :String</text>
<text text-anchor="start" x="215" y="-10.5" font-family="Times,serif" font-size="14.00">id :String</text>
</g>
<!-- Message&#45;&gt;PrivateChat -->
<g id="edge7" class="edge">
<title>Message&#45;&gt;PrivateChat</title>
<path fill="none" stroke="black" d="M270.47,-103.11C272.59,-114.85 274.6,-127.32 276,-139 287.91,-238.17 291.97,-355.59 293.33,-416.92"/>
<text text-anchor="middle" x="325.99" y="-404.32" font-family="Times,serif" font-size="14.00">privateChat</text>
<text text-anchor="middle" x="299.43" y="-107.31" font-family="Times,serif" font-size="14.00">message *</text>
</g>
<!-- Message&#45;&gt;ServerChannel -->
<g id="edge8" class="edge">
<title>Message&#45;&gt;ServerChannel</title>
<path fill="none" stroke="black" d="M230.62,-103.39C224,-114.86 216.91,-127.13 210.11,-138.91"/>
<text text-anchor="middle" x="250.54" y="-126.31" font-family="Times,serif" font-size="14.00">serverChannel</text>
<text text-anchor="middle" x="201.66" y="-107.59" font-family="Times,serif" font-size="14.00">message *</text>
</g>
<!-- Server&#45;&gt;User -->
<g id="edge10" class="edge">
<title>Server&#45;&gt;User</title>
<path fill="none" stroke="black" d="M76.15,-503.31C83.51,-514.78 91.48,-527.2 98.84,-538.67"/>
<text text-anchor="middle" x="81.93" y="-526.07" font-family="Times,serif" font-size="14.00">user *</text>
<text text-anchor="middle" x="53.8" y="-507.51" font-family="Times,serif" font-size="14.00">server *</text>
</g>
<!-- ServerChannel&#45;&gt;CurrentUser -->
<g id="edge3" class="edge">
<title>ServerChannel&#45;&gt;CurrentUser</title>
<path fill="none" stroke="black" d="M191.58,-259.29C194.74,-271.3 197.99,-283.69 200.95,-294.95"/>
<text text-anchor="middle" x="167.92" y="-282.35" font-family="Times,serif" font-size="14.00">currentUser</text>
<text text-anchor="middle" x="164.56" y="-263.49" font-family="Times,serif" font-size="14.00">channel *</text>
</g>
<!-- ServerChannel&#45;&gt;User -->
<g id="edge9" class="edge">
<title>ServerChannel&#45;&gt;User</title>
<path fill="none" stroke="black" d="M154.18,-259.2C150.57,-270.93 147.27,-283.25 145,-295 128.48,-380.5 125.67,-482.75 125.54,-538.9"/>
<text text-anchor="middle" x="75.97" y="-526.3" font-family="Times,serif" font-size="14.00">privilegedUsers *</text>
<text text-anchor="middle" x="120.55" y="-263.4" font-family="Times,serif" font-size="14.00">privileged *</text>
</g>
</g>
</svg>
