<svg width="451px" height="650px"
 viewBox="0.00 0.00 451.04 650.00" xmlns="http://www.w3.org/2000/svg" xmlns:xlink="http://www.w3.org/1999/xlink">
<g id="graph0" class="graph" transform="scale(1.0 1.0) rotate(0) translate(4 646)">
<title>de.uniks.stp.model</title>
<polygon fill="white" stroke="transparent" points="-4,4 -4,-646 447.04,-646 447.04,4 -4,4"/>
<!-- AudioMember -->
<g id="node1" class="node">
<title>AudioMember</title>
<polygon fill="none" stroke="black" points="207.5,-59.5 207.5,-81.5 295.5,-81.5 295.5,-59.5 207.5,-59.5"/>
<text text-anchor="start" x="210.29" y="-65.9" font-family="Times,serif" font-size="14.00">AudioMember</text>
<polygon fill="none" stroke="black" points="207.5,-20.5 207.5,-59.5 295.5,-59.5 295.5,-20.5 207.5,-20.5"/>
<text text-anchor="start" x="215.53" y="-43.9" font-family="Times,serif" font-size="14.00">id :String</text>
<text text-anchor="start" x="215.53" y="-27.1" font-family="Times,serif" font-size="14.00">name :String</text>
</g>
<!-- ServerChannel -->
<g id="node7" class="node">
<title>ServerChannel</title>
<polygon fill="none" stroke="black" points="169.5,-233 169.5,-255 334.5,-255 334.5,-233 169.5,-233"/>
<text text-anchor="start" x="210.41" y="-239.4" font-family="Times,serif" font-size="14.00">ServerChannel</text>
<polygon fill="none" stroke="black" points="169.5,-143 169.5,-233 334.5,-233 334.5,-143 169.5,-143"/>
<text text-anchor="start" x="172.5" y="-217.4" font-family="Times,serif" font-size="14.00">name :String</text>
<text text-anchor="start" x="172.5" y="-200.6" font-family="Times,serif" font-size="14.00">id :String</text>
<text text-anchor="start" x="172.5" y="-183.8" font-family="Times,serif" font-size="14.00">unreadMessagesCounter :int</text>
<text text-anchor="start" x="172.5" y="-167" font-family="Times,serif" font-size="14.00">privilege :boolean</text>
<text text-anchor="start" x="172.5" y="-150.2" font-family="Times,serif" font-size="14.00">type :String</text>
</g>
<!-- AudioMember&#45;&gt;ServerChannel -->
<g id="edge1" class="edge">
<title>AudioMember&#45;&gt;ServerChannel</title>
<path fill="none" stroke="black" d="M251.5,-86.25C251.5,-101.86 251.5,-120.88 251.5,-138.77"/>
<text text-anchor="middle" x="229.73" y="-126.17" font-family="Times,serif" font-size="14.00">channel</text>
<text text-anchor="middle" x="296.02" y="-90.45" font-family="Times,serif" font-size="14.00">audioMember *</text>
</g>
<!-- Categories -->
<g id="node2" class="node">
<title>Categories</title>
<polygon fill="none" stroke="black" points="337.5,-59.5 337.5,-81.5 414.5,-81.5 414.5,-59.5 337.5,-59.5"/>
<text text-anchor="start" x="346.07" y="-65.9" font-family="Times,serif" font-size="14.00">Categories</text>
<polygon fill="none" stroke="black" points="337.5,-20.5 337.5,-59.5 414.5,-59.5 414.5,-20.5 337.5,-20.5"/>
<text text-anchor="start" x="340.5" y="-43.9" font-family="Times,serif" font-size="14.00">name :String</text>
<text text-anchor="start" x="340.5" y="-27.1" font-family="Times,serif" font-size="14.00">id :String</text>
</g>
<!-- Server -->
<g id="node6" class="node">
<title>Server</title>
<polygon fill="none" stroke="black" points="307.5,-494 307.5,-516 389.5,-516 389.5,-494 307.5,-494"/>
<text text-anchor="start" x="330.23" y="-500.4" font-family="Times,serif" font-size="14.00">Server</text>
<polygon fill="none" stroke="black" points="307.5,-438 307.5,-494 389.5,-494 389.5,-438 307.5,-438"/>
<text text-anchor="start" x="310.5" y="-478.4" font-family="Times,serif" font-size="14.00">name :String</text>
<text text-anchor="start" x="310.5" y="-461.6" font-family="Times,serif" font-size="14.00">id :String</text>
<text text-anchor="start" x="310.5" y="-444.8" font-family="Times,serif" font-size="14.00">owner :String</text>
</g>
<!-- Categories&#45;&gt;Server -->
<g id="edge2" class="edge">
<title>Categories&#45;&gt;Server</title>
<path fill="none" stroke="black" d="M375.79,-86.45C375.98,-148.51 374.78,-284.31 362.5,-398 361.24,-409.63 359.28,-422.13 357.21,-433.65"/>
<text text-anchor="middle" x="340.12" y="-421.05" font-family="Times,serif" font-size="14.00">server</text>
<text text-anchor="middle" x="409.42" y="-90.65" font-family="Times,serif" font-size="14.00">categories *</text>
</g>
<!-- Categories&#45;&gt;ServerChannel -->
<g id="edge3" class="edge">
<title>Categories&#45;&gt;ServerChannel</title>
<path fill="none" stroke="black" d="M346.74,-86.25C333.43,-101.86 317.23,-120.88 301.98,-138.77"/>
<text text-anchor="middle" x="329" y="-126.17" font-family="Times,serif" font-size="14.00">channel *</text>
<text text-anchor="middle" x="346.74" y="-90.45" font-family="Times,serif" font-size="14.00">categories</text>
</g>
<!-- CurrentUser -->
<g id="node3" class="node">
<title>CurrentUser</title>
<polygon fill="none" stroke="black" points="245.5,-371.5 245.5,-393.5 345.5,-393.5 345.5,-371.5 245.5,-371.5"/>
<text text-anchor="start" x="260.91" y="-377.9" font-family="Times,serif" font-size="14.00">CurrentUser</text>
<polygon fill="none" stroke="black" points="245.5,-298.5 245.5,-371.5 345.5,-371.5 345.5,-298.5 245.5,-298.5"/>
<text text-anchor="start" x="248.5" y="-355.9" font-family="Times,serif" font-size="14.00">name :String</text>
<text text-anchor="start" x="248.5" y="-339.1" font-family="Times,serif" font-size="14.00">userKey :String</text>
<text text-anchor="start" x="248.5" y="-322.3" font-family="Times,serif" font-size="14.00">password :String</text>
<text text-anchor="start" x="248.5" y="-305.5" font-family="Times,serif" font-size="14.00">id :String</text>
</g>
<!-- PrivateChat -->
<g id="node5" class="node">
<title>PrivateChat</title>
<polygon fill="none" stroke="black" points="8.5,-494 8.5,-516 173.5,-516 173.5,-494 8.5,-494"/>
<text text-anchor="start" x="57.95" y="-500.4" font-family="Times,serif" font-size="14.00">PrivateChat</text>
<polygon fill="none" stroke="black" points="8.5,-438 8.5,-494 173.5,-494 173.5,-438 8.5,-438"/>
<text text-anchor="start" x="11.5" y="-478.4" font-family="Times,serif" font-size="14.00">name :String</text>
<text text-anchor="start" x="11.5" y="-461.6" font-family="Times,serif" font-size="14.00">id :String</text>
<text text-anchor="start" x="11.5" y="-444.8" font-family="Times,serif" font-size="14.00">unreadMessagesCounter :int</text>
</g>
<!-- CurrentUser&#45;&gt;PrivateChat -->
<g id="edge5" class="edge">
<title>CurrentUser&#45;&gt;PrivateChat</title>
<path fill="none" stroke="black" d="M237.3,-383.98C212.45,-399.56 183.28,-417.84 157.53,-433.99"/>
<text text-anchor="middle" x="195.43" y="-421.39" font-family="Times,serif" font-size="14.00">privateChat *</text>
<text text-anchor="middle" x="204.27" y="-371.38" font-family="Times,serif" font-size="14.00">currentUser</text>
</g>
<!-- CurrentUser&#45;&gt;Server -->
<g id="edge6" class="edge">
<title>CurrentUser&#45;&gt;Server</title>
<path fill="none" stroke="black" d="M316.45,-398.29C321.31,-410.07 326.43,-422.49 331.12,-433.86"/>
<text text-anchor="middle" x="308.77" y="-421.26" font-family="Times,serif" font-size="14.00">server *</text>
<text text-anchor="middle" x="283.41" y="-402.49" font-family="Times,serif" font-size="14.00">currentUser</text>
</g>
<!-- User -->
<g id="node8" class="node">
<title>User</title>
<polygon fill="none" stroke="black" points="227.5,-616 227.5,-638 316.5,-638 316.5,-616 227.5,-616"/>
<text text-anchor="start" x="258.79" y="-622.4" font-family="Times,serif" font-size="14.00">User</text>
<polygon fill="none" stroke="black" points="227.5,-560 227.5,-616 316.5,-616 316.5,-560 227.5,-560"/>
<text text-anchor="start" x="230.5" y="-600.4" font-family="Times,serif" font-size="14.00">name :String</text>
<text text-anchor="start" x="230.5" y="-583.6" font-family="Times,serif" font-size="14.00">id :String</text>
<text text-anchor="start" x="230.5" y="-566.8" font-family="Times,serif" font-size="14.00">status :boolean</text>
</g>
<!-- CurrentUser&#45;&gt;User -->
<g id="edge7" class="edge">
<title>CurrentUser&#45;&gt;User</title>
<path fill="none" stroke="black" d="M290.64,-398.19C286.21,-444.51 279.72,-512.22 275.55,-555.7"/>
<text text-anchor="middle" x="258.64" y="-543.1" font-family="Times,serif" font-size="14.00">user *</text>
<text text-anchor="middle" x="323.68" y="-402.39" font-family="Times,serif" font-size="14.00">currentUser</text>
</g>
<!-- Message -->
<g id="node4" class="node">
<title>Message</title>
<polygon fill="none" stroke="black" points="71.5,-76.5 71.5,-98.5 167.5,-98.5 167.5,-76.5 71.5,-76.5"/>
<text text-anchor="start" x="95.01" y="-82.9" font-family="Times,serif" font-size="14.00">Message</text>
<polygon fill="none" stroke="black" points="71.5,-3.5 71.5,-76.5 167.5,-76.5 167.5,-3.5 71.5,-3.5"/>
<text text-anchor="start" x="74.5" y="-60.9" font-family="Times,serif" font-size="14.00">from :String</text>
<text text-anchor="start" x="74.5" y="-44.1" font-family="Times,serif" font-size="14.00">timestamp :long</text>
<text text-anchor="start" x="74.5" y="-27.3" font-family="Times,serif" font-size="14.00">message :String</text>
<text text-anchor="start" x="74.5" y="-10.5" font-family="Times,serif" font-size="14.00">id :String</text>
</g>
<!-- Message&#45;&gt;PrivateChat -->
<g id="edge8" class="edge">
<title>Message&#45;&gt;PrivateChat</title>
<path fill="none" stroke="black" d="M116.03,-103.16C110.25,-187.58 98.75,-355.47 93.39,-433.86"/>
<text text-anchor="middle" x="60.73" y="-421.26" font-family="Times,serif" font-size="14.00">privateChat</text>
<text text-anchor="middle" x="87.07" y="-107.36" font-family="Times,serif" font-size="14.00">message *</text>
</g>
<!-- Message&#45;&gt;ServerChannel -->
<g id="edge9" class="edge">
<title>Message&#45;&gt;ServerChannel</title>
<path fill="none" stroke="black" d="M165.67,-103.39C176.08,-114.86 187.21,-127.13 197.89,-138.91"/>
<text text-anchor="middle" x="157.47" y="-126.31" font-family="Times,serif" font-size="14.00">serverChannel</text>
<text text-anchor="middle" x="194.63" y="-107.59" font-family="Times,serif" font-size="14.00">message *</text>
</g>
<!-- Server&#45;&gt;User -->
<g id="edge11" class="edge">
<title>Server&#45;&gt;User</title>
<path fill="none" stroke="black" d="M321.35,-520.31C313.99,-531.78 306.02,-544.2 298.66,-555.67"/>
<text text-anchor="middle" x="315.57" y="-543.07" font-family="Times,serif" font-size="14.00">user *</text>
<text text-anchor="middle" x="299.01" y="-524.51" font-family="Times,serif" font-size="14.00">server *</text>
</g>
<!-- ServerChannel&#45;&gt;CurrentUser -->
<g id="edge4" class="edge">
<title>ServerChannel&#45;&gt;CurrentUser</title>
<path fill="none" stroke="black" d="M269.4,-259.18C272.97,-270.98 276.68,-283.28 280.16,-294.76"/>
<text text-anchor="middle" x="247.12" y="-282.16" font-family="Times,serif" font-size="14.00">currentUser</text>
<text text-anchor="middle" x="242.38" y="-263.38" font-family="Times,serif" font-size="14.00">channel *</text>
</g>
<!-- ServerChannel&#45;&gt;User -->
<g id="edge10" class="edge">
<title>ServerChannel&#45;&gt;User</title>
<path fill="none" stroke="black" d="M234.89,-259.15C232.23,-270.94 229.9,-283.29 228.5,-295 217.36,-388.38 242.18,-497.48 258.56,-555.92"/>
<text text-anchor="middle" x="208.99" y="-543.32" font-family="Times,serif" font-size="14.00">privilegedUsers *</text>
<text text-anchor="middle" x="201.26" y="-263.35" font-family="Times,serif" font-size="14.00">privileged *</text>
</g>
</g>
</svg>
