<svg width="359px" height="355px"
 viewBox="0.00 0.00 358.63 355.00" xmlns="http://www.w3.org/2000/svg" xmlns:xlink="http://www.w3.org/1999/xlink">
<g id="graph0" class="graph" transform="scale(1.0 1.0) rotate(0) translate(4 351)">
<title>de.uniks.stp.model</title>
<polygon fill="white" stroke="transparent" points="-4,4 -4,-351 354.63,-351 354.63,4 -4,4"/>
<!-- Categories -->
<g id="node1" class="node">
<title>Categories</title>
<polygon fill="none" stroke="black" points="71.5,-42.5 71.5,-64.5 148.5,-64.5 148.5,-42.5 71.5,-42.5"/>
<text text-anchor="start" x="80.07" y="-48.9" font-family="Times,serif" font-size="14.00">Categories</text>
<polygon fill="none" stroke="black" points="71.5,-3.5 71.5,-42.5 148.5,-42.5 148.5,-3.5 71.5,-3.5"/>
<text text-anchor="start" x="74.5" y="-26.9" font-family="Times,serif" font-size="14.00">name :String</text>
<text text-anchor="start" x="74.5" y="-10.1" font-family="Times,serif" font-size="14.00">id :String</text>
</g>
<!-- Channel -->
<g id="node2" class="node">
<title>Channel</title>
<polygon fill="none" stroke="black" points="8.5,-199 8.5,-221 173.5,-221 173.5,-199 8.5,-199"/>
<text text-anchor="start" x="67.67" y="-205.4" font-family="Times,serif" font-size="14.00">Channel</text>
<polygon fill="none" stroke="black" points="8.5,-109 8.5,-199 173.5,-199 173.5,-109 8.5,-109"/>
<text text-anchor="start" x="11.5" y="-183.4" font-family="Times,serif" font-size="14.00">name :String</text>
<text text-anchor="start" x="11.5" y="-166.6" font-family="Times,serif" font-size="14.00">id :String</text>
<text text-anchor="start" x="11.5" y="-149.8" font-family="Times,serif" font-size="14.00">unreadMessagesCounter :int</text>
<text text-anchor="start" x="11.5" y="-133" font-family="Times,serif" font-size="14.00">privilege :boolean</text>
<text text-anchor="start" x="11.5" y="-116.2" font-family="Times,serif" font-size="14.00">type :String</text>
</g>
<!-- Categories&#45;&gt;Channel -->
<g id="edge1" class="edge">
<title>Categories&#45;&gt;Channel</title>
<path fill="none" stroke="black" d="M104.51,-69.26C102.9,-80.12 101.07,-92.49 99.28,-104.62"/>
<text text-anchor="middle" x="72.26" y="-92.02" font-family="Times,serif" font-size="14.00">channel *</text>
<text text-anchor="middle" x="76.14" y="-73.46" font-family="Times,serif" font-size="14.00">categories</text>
</g>
<!-- Server -->
<g id="node5" class="node">
<title>Server</title>
<polygon fill="none" stroke="black" points="207.5,-182 207.5,-204 289.5,-204 289.5,-182 207.5,-182"/>
<text text-anchor="start" x="230.23" y="-188.4" font-family="Times,serif" font-size="14.00">Server</text>
<polygon fill="none" stroke="black" points="207.5,-126 207.5,-182 289.5,-182 289.5,-126 207.5,-126"/>
<text text-anchor="start" x="210.5" y="-166.4" font-family="Times,serif" font-size="14.00">name :String</text>
<text text-anchor="start" x="210.5" y="-149.6" font-family="Times,serif" font-size="14.00">id :String</text>
<text text-anchor="start" x="210.5" y="-132.8" font-family="Times,serif" font-size="14.00">owner :String</text>
</g>
<!-- Categories&#45;&gt;Server -->
<g id="edge2" class="edge">
<title>Categories&#45;&gt;Server</title>
<path fill="none" stroke="black" d="M149.46,-69.25C162.4,-80.44 176.72,-93.08 189.5,-105 195.22,-110.33 201.15,-116.04 206.96,-121.73"/>
<text text-anchor="middle" x="224.05" y="-109.13" font-family="Times,serif" font-size="14.00">server</text>
<text text-anchor="middle" x="166.27" y="-73.45" font-family="Times,serif" font-size="14.00">categories *</text>
</g>
<!-- Message -->
<g id="node4" class="node">
<title>Message</title>
<polygon fill="none" stroke="black" points="43.5,-321 43.5,-343 138.5,-343 138.5,-321 43.5,-321"/>
<text text-anchor="start" x="66.51" y="-327.4" font-family="Times,serif" font-size="14.00">Message</text>
<polygon fill="none" stroke="black" points="43.5,-265 43.5,-321 138.5,-321 138.5,-265 43.5,-265"/>
<text text-anchor="start" x="46.5" y="-305.4" font-family="Times,serif" font-size="14.00">from :String</text>
<text text-anchor="start" x="46.5" y="-288.6" font-family="Times,serif" font-size="14.00">timestamp :int</text>
<text text-anchor="start" x="46.5" y="-271.8" font-family="Times,serif" font-size="14.00">message :String</text>
</g>
<!-- Channel&#45;&gt;Message -->
<g id="edge3" class="edge">
<title>Channel&#45;&gt;Message</title>
<path fill="none" stroke="black" d="M90.5,-225.29C90.5,-237.3 90.5,-249.69 90.5,-260.95"/>
<text text-anchor="middle" x="61.54" y="-248.35" font-family="Times,serif" font-size="14.00">message *</text>
<text text-anchor="middle" x="68.73" y="-229.49" font-family="Times,serif" font-size="14.00">channel</text>
</g>
<!-- CurrentUser -->
<g id="node3" class="node">
<title>CurrentUser</title>
<polygon fill="none" stroke="black" points="201.5,-42.5 201.5,-64.5 295.5,-64.5 295.5,-42.5 201.5,-42.5"/>
<text text-anchor="start" x="213.91" y="-48.9" font-family="Times,serif" font-size="14.00">CurrentUser</text>
<polygon fill="none" stroke="black" points="201.5,-3.5 201.5,-42.5 295.5,-42.5 295.5,-3.5 201.5,-3.5"/>
<text text-anchor="start" x="204.5" y="-26.9" font-family="Times,serif" font-size="14.00">name :String</text>
<text text-anchor="start" x="204.5" y="-10.1" font-family="Times,serif" font-size="14.00">userKey :String</text>
</g>
<!-- CurrentUser&#45;&gt;Channel -->
<g id="edge4" class="edge">
<title>CurrentUser&#45;&gt;Channel</title>
<path fill="none" stroke="black" d="M206.99,-69.26C193.55,-80.19 178.22,-92.66 163.2,-104.87"/>
<text text-anchor="middle" x="201.11" y="-92.27" font-family="Times,serif" font-size="14.00">privateChat *</text>
<text text-anchor="middle" x="240.02" y="-73.46" font-family="Times,serif" font-size="14.00">currentUser</text>
</g>
<!-- CurrentUser&#45;&gt;Server -->
<g id="edge5" class="edge">
<title>CurrentUser&#45;&gt;Server</title>
<path fill="none" stroke="black" d="M248.5,-69.26C248.5,-85.32 248.5,-104.69 248.5,-121.72"/>
<text text-anchor="middle" x="270.85" y="-109.12" font-family="Times,serif" font-size="14.00">server *</text>
<text text-anchor="middle" x="281.53" y="-73.46" font-family="Times,serif" font-size="14.00">currentUser</text>
</g>
<!-- User -->
<g id="node6" class="node">
<title>User</title>
<polygon fill="none" stroke="black" points="242.5,-321 242.5,-343 331.5,-343 331.5,-321 242.5,-321"/>
<text text-anchor="start" x="273.79" y="-327.4" font-family="Times,serif" font-size="14.00">User</text>
<polygon fill="none" stroke="black" points="242.5,-265 242.5,-321 331.5,-321 331.5,-265 242.5,-265"/>
<text text-anchor="start" x="245.5" y="-305.4" font-family="Times,serif" font-size="14.00">name :String</text>
<text text-anchor="start" x="245.5" y="-288.6" font-family="Times,serif" font-size="14.00">id :String</text>
<text text-anchor="start" x="245.5" y="-271.8" font-family="Times,serif" font-size="14.00">status :boolean</text>
</g>
<!-- CurrentUser&#45;&gt;User -->
<g id="edge6" class="edge">
<title>CurrentUser&#45;&gt;User</title>
<path fill="none" stroke="black" d="M284.56,-69.21C293.46,-79.72 301.79,-92 306.5,-105 325.1,-156.32 313.12,-219.72 301.23,-260.73"/>
<text text-anchor="middle" x="318.14" y="-248.13" font-family="Times,serif" font-size="14.00">user *</text>
<text text-anchor="middle" x="317.6" y="-56.61" font-family="Times,serif" font-size="14.00">currentUser</text>
</g>
<!-- Server&#45;&gt;User -->
<g id="edge7" class="edge">
<title>Server&#45;&gt;User</title>
<path fill="none" stroke="black" d="M260.21,-208.22C264.83,-224.89 270.14,-244 274.76,-260.68"/>
<text text-anchor="middle" x="257.85" y="-248.08" font-family="Times,serif" font-size="14.00">user *</text>
<text text-anchor="middle" x="237.86" y="-212.42" font-family="Times,serif" font-size="14.00">server *</text>
</g>
</g>
</svg>
