<svg width="359px" height="321px"
 viewBox="0.00 0.00 358.63 321.00" xmlns="http://www.w3.org/2000/svg" xmlns:xlink="http://www.w3.org/1999/xlink">
<g id="graph0" class="graph" transform="scale(1.0 1.0) rotate(0) translate(4 317)">
<title>de.uniks.stp.model</title>
<polygon fill="white" stroke="transparent" points="-4,4 -4,-317 354.63,-317 354.63,4 -4,4"/>
<!-- Categories -->
<g id="node1" class="node">
<title>Categories</title>
<polygon fill="none" stroke="black" points="71.5,-42.5 71.5,-64.5 148.5,-64.5 148.5,-42.5 71.5,-42.5"/>
<text text-anchor="start" x="80.07" y="-48.9" font-family="Times,serif" font-size="14.00">Categories</text>
<polygon fill="none" stroke="black" points="71.5,-3.5 71.5,-42.5 148.5,-42.5 148.5,-3.5 71.5,-3.5"/>
<text text-anchor="start" x="74.5" y="-26.9" font-family="Times,serif" font-size="14.00">name :String</text>
<text text-anchor="start" x="74.5" y="-10.1" font-family="Times,serif" font-size="14.00">id :String</text>
</g>
<!-- Channel -->
<g id="node2" class="node">
<title>Channel</title>
<polygon fill="none" stroke="black" points="8.5,-165 8.5,-187 173.5,-187 173.5,-165 8.5,-165"/>
<text text-anchor="start" x="67.67" y="-171.4" font-family="Times,serif" font-size="14.00">Channel</text>
<polygon fill="none" stroke="black" points="8.5,-109 8.5,-165 173.5,-165 173.5,-109 8.5,-109"/>
<text text-anchor="start" x="11.5" y="-149.4" font-family="Times,serif" font-size="14.00">name :String</text>
<text text-anchor="start" x="11.5" y="-132.6" font-family="Times,serif" font-size="14.00">id :String</text>
<text text-anchor="start" x="11.5" y="-115.8" font-family="Times,serif" font-size="14.00">unreadMessagesCounter :int</text>
</g>
<!-- Categories&#45;&gt;Channel -->
<g id="edge1" class="edge">
<title>Categories&#45;&gt;Channel</title>
<path fill="none" stroke="black" d="M103.75,-69.26C101.85,-80.41 99.71,-92.96 97.71,-104.67"/>
<text text-anchor="middle" x="70.7" y="-92.07" font-family="Times,serif" font-size="14.00">channel *</text>
<text text-anchor="middle" x="75.38" y="-73.46" font-family="Times,serif" font-size="14.00">categories</text>
</g>
<!-- Server -->
<g id="node5" class="node">
<title>Server</title>
<polygon fill="none" stroke="black" points="207.5,-165 207.5,-187 289.5,-187 289.5,-165 207.5,-165"/>
<text text-anchor="start" x="230.23" y="-171.4" font-family="Times,serif" font-size="14.00">Server</text>
<polygon fill="none" stroke="black" points="207.5,-109 207.5,-165 289.5,-165 289.5,-109 207.5,-109"/>
<text text-anchor="start" x="210.5" y="-149.4" font-family="Times,serif" font-size="14.00">name :String</text>
<text text-anchor="start" x="210.5" y="-132.6" font-family="Times,serif" font-size="14.00">id :String</text>
<text text-anchor="start" x="210.5" y="-115.8" font-family="Times,serif" font-size="14.00">owner :String</text>
</g>
<!-- Categories&#45;&gt;Server -->
<g id="edge2" class="edge">
<title>Categories&#45;&gt;Server</title>
<path fill="none" stroke="black" d="M151.58,-69.26C166.6,-81.31 183.66,-94.99 199.23,-107.48"/>
<text text-anchor="middle" x="182.14" y="-94.88" font-family="Times,serif" font-size="14.00">server</text>
<text text-anchor="middle" x="185.2" y="-73.46" font-family="Times,serif" font-size="14.00">categories *</text>
</g>
<!-- Message -->
<g id="node4" class="node">
<title>Message</title>
<polygon fill="none" stroke="black" points="43.5,-287 43.5,-309 138.5,-309 138.5,-287 43.5,-287"/>
<text text-anchor="start" x="66.51" y="-293.4" font-family="Times,serif" font-size="14.00">Message</text>
<polygon fill="none" stroke="black" points="43.5,-231 43.5,-287 138.5,-287 138.5,-231 43.5,-231"/>
<text text-anchor="start" x="46.5" y="-271.4" font-family="Times,serif" font-size="14.00">from :String</text>
<text text-anchor="start" x="46.5" y="-254.6" font-family="Times,serif" font-size="14.00">timestamp :int</text>
<text text-anchor="start" x="46.5" y="-237.8" font-family="Times,serif" font-size="14.00">message :String</text>
</g>
<!-- Channel&#45;&gt;Message -->
<g id="edge3" class="edge">
<title>Channel&#45;&gt;Message</title>
<path fill="none" stroke="black" d="M90.5,-191.31C90.5,-202.78 90.5,-215.2 90.5,-226.67"/>
<text text-anchor="middle" x="61.54" y="-214.07" font-family="Times,serif" font-size="14.00">message *</text>
<text text-anchor="middle" x="68.73" y="-195.51" font-family="Times,serif" font-size="14.00">channel</text>
</g>
<!-- CurrentUser -->
<g id="node3" class="node">
<title>CurrentUser</title>
<polygon fill="none" stroke="black" points="201.5,-42.5 201.5,-64.5 295.5,-64.5 295.5,-42.5 201.5,-42.5"/>
<text text-anchor="start" x="213.91" y="-48.9" font-family="Times,serif" font-size="14.00">CurrentUser</text>
<polygon fill="none" stroke="black" points="201.5,-3.5 201.5,-42.5 295.5,-42.5 295.5,-3.5 201.5,-3.5"/>
<text text-anchor="start" x="204.5" y="-26.9" font-family="Times,serif" font-size="14.00">name :String</text>
<text text-anchor="start" x="204.5" y="-10.1" font-family="Times,serif" font-size="14.00">userKey :String</text>
</g>
<!-- CurrentUser&#45;&gt;Channel -->
<g id="edge4" class="edge">
<title>CurrentUser&#45;&gt;Channel</title>
<path fill="none" stroke="black" d="M200.67,-69.26C184.77,-80.47 166.87,-93.1 150.2,-104.87"/>
<text text-anchor="middle" x="112.29" y="-92.27" font-family="Times,serif" font-size="14.00">privateChat *</text>
<text text-anchor="middle" x="233.7" y="-73.46" font-family="Times,serif" font-size="14.00">currentUser</text>
</g>
<!-- CurrentUser&#45;&gt;Server -->
<g id="edge5" class="edge">
<title>CurrentUser&#45;&gt;Server</title>
<path fill="none" stroke="black" d="M248.5,-69.26C248.5,-80.41 248.5,-92.96 248.5,-104.67"/>
<text text-anchor="middle" x="226.15" y="-92.07" font-family="Times,serif" font-size="14.00">server *</text>
<text text-anchor="middle" x="281.53" y="-73.46" font-family="Times,serif" font-size="14.00">currentUser</text>
</g>
<!-- User -->
<g id="node6" class="node">
<title>User</title>
<polygon fill="none" stroke="black" points="242.5,-287 242.5,-309 331.5,-309 331.5,-287 242.5,-287"/>
<text text-anchor="start" x="273.79" y="-293.4" font-family="Times,serif" font-size="14.00">User</text>
<polygon fill="none" stroke="black" points="242.5,-231 242.5,-287 331.5,-287 331.5,-231 242.5,-231"/>
<text text-anchor="start" x="245.5" y="-271.4" font-family="Times,serif" font-size="14.00">name :String</text>
<text text-anchor="start" x="245.5" y="-254.6" font-family="Times,serif" font-size="14.00">id :String</text>
<text text-anchor="start" x="245.5" y="-237.8" font-family="Times,serif" font-size="14.00">status :boolean</text>
</g>
<!-- CurrentUser&#45;&gt;User -->
<g id="edge6" class="edge">
<title>CurrentUser&#45;&gt;User</title>
<path fill="none" stroke="black" d="M284.56,-69.21C293.46,-79.72 301.79,-92 306.5,-105 320.87,-144.64 312.14,-192.83 302.1,-226.68"/>
<text text-anchor="middle" x="319.01" y="-214.08" font-family="Times,serif" font-size="14.00">user *</text>
<text text-anchor="middle" x="317.6" y="-56.61" font-family="Times,serif" font-size="14.00">currentUser</text>
</g>
<!-- Server&#45;&gt;User -->
<g id="edge7" class="edge">
<title>Server&#45;&gt;User</title>
<path fill="none" stroke="black" d="M261.9,-191.31C265.53,-202.78 269.46,-215.2 273.1,-226.67"/>
<text text-anchor="middle" x="256.19" y="-214.07" font-family="Times,serif" font-size="14.00">user *</text>
<text text-anchor="middle" x="239.55" y="-195.51" font-family="Times,serif" font-size="14.00">server *</text>
</g>
</g>
</svg>
