<svg width="284px" height="321px"
 viewBox="0.00 0.00 283.83 321.00" xmlns="http://www.w3.org/2000/svg" xmlns:xlink="http://www.w3.org/1999/xlink">
<g id="graph0" class="graph" transform="scale(1.0 1.0) rotate(0) translate(4 317)">
<title>de.uniks.stp.model</title>
<polygon fill="white" stroke="transparent" points="-4,4 -4,-317 279.83,-317 279.83,4 -4,4"/>
<!-- Categories -->
<g id="node1" class="node">
<title>Categories</title>
<polygon fill="none" stroke="black" points="19.92,-42.5 19.92,-64.5 96.92,-64.5 96.92,-42.5 19.92,-42.5"/>
<text text-anchor="start" x="28.49" y="-48.9" font-family="Times,serif" font-size="14.00">Categories</text>
<polygon fill="none" stroke="black" points="19.92,-3.5 19.92,-42.5 96.92,-42.5 96.92,-3.5 19.92,-3.5"/>
<text text-anchor="start" x="22.92" y="-26.9" font-family="Times,serif" font-size="14.00">name :String</text>
<text text-anchor="start" x="22.92" y="-10.1" font-family="Times,serif" font-size="14.00">id :String</text>
</g>
<!-- Channel -->
<g id="node2" class="node">
<title>Channel</title>
<polygon fill="none" stroke="black" points="19.92,-156 19.92,-178 96.92,-178 96.92,-156 19.92,-156"/>
<text text-anchor="start" x="35.1" y="-162.4" font-family="Times,serif" font-size="14.00">Channel</text>
<polygon fill="none" stroke="black" points="19.92,-117 19.92,-156 96.92,-156 96.92,-117 19.92,-117"/>
<text text-anchor="start" x="22.92" y="-140.4" font-family="Times,serif" font-size="14.00">name :String</text>
<text text-anchor="start" x="22.92" y="-123.6" font-family="Times,serif" font-size="14.00">id :String</text>
</g>
<!-- Categories&#45;&gt;Channel -->
<g id="edge1" class="edge">
<title>Categories&#45;&gt;Channel</title>
<path fill="none" stroke="black" d="M57.92,-69.26C57.92,-83.23 57.92,-99.4 57.92,-113.36"/>
<text text-anchor="middle" x="30.91" y="-100.76" font-family="Times,serif" font-size="14.00">channel *</text>
<text text-anchor="middle" x="29.55" y="-73.46" font-family="Times,serif" font-size="14.00">categories</text>
</g>
<!-- Server -->
<g id="node5" class="node">
<title>Server</title>
<polygon fill="none" stroke="black" points="130.92,-165 130.92,-187 212.92,-187 212.92,-165 130.92,-165"/>
<text text-anchor="start" x="153.66" y="-171.4" font-family="Times,serif" font-size="14.00">Server</text>
<polygon fill="none" stroke="black" points="130.92,-109 130.92,-165 212.92,-165 212.92,-109 130.92,-109"/>
<text text-anchor="start" x="133.92" y="-149.4" font-family="Times,serif" font-size="14.00">name :String</text>
<text text-anchor="start" x="133.92" y="-132.6" font-family="Times,serif" font-size="14.00">id :String</text>
<text text-anchor="start" x="133.92" y="-115.8" font-family="Times,serif" font-size="14.00">owner :String</text>
</g>
<!-- Categories&#45;&gt;Server -->
<g id="edge2" class="edge">
<title>Categories&#45;&gt;Server</title>
<path fill="none" stroke="black" d="M92.44,-69.26C103.84,-80.41 116.67,-92.96 128.65,-104.67"/>
<text text-anchor="middle" x="111.55" y="-92.07" font-family="Times,serif" font-size="14.00">server</text>
<text text-anchor="middle" x="126.06" y="-73.46" font-family="Times,serif" font-size="14.00">categories *</text>
</g>
<!-- Message -->
<g id="node4" class="node">
<title>Message</title>
<polygon fill="none" stroke="black" points="10.92,-287 10.92,-309 105.92,-309 105.92,-287 10.92,-287"/>
<text text-anchor="start" x="33.93" y="-293.4" font-family="Times,serif" font-size="14.00">Message</text>
<polygon fill="none" stroke="black" points="10.92,-231 10.92,-287 105.92,-287 105.92,-231 10.92,-231"/>
<text text-anchor="start" x="13.92" y="-271.4" font-family="Times,serif" font-size="14.00">from :String</text>
<text text-anchor="start" x="13.92" y="-254.6" font-family="Times,serif" font-size="14.00">timestamp :int</text>
<text text-anchor="start" x="13.92" y="-237.8" font-family="Times,serif" font-size="14.00">message :String</text>
</g>
<!-- Channel&#45;&gt;Message -->
<g id="edge3" class="edge">
<title>Channel&#45;&gt;Message</title>
<path fill="none" stroke="black" d="M57.92,-182.75C57.92,-196.47 57.92,-212.48 57.92,-226.95"/>
<text text-anchor="middle" x="28.96" y="-214.35" font-family="Times,serif" font-size="14.00">message *</text>
<text text-anchor="middle" x="36.16" y="-186.95" font-family="Times,serif" font-size="14.00">channel</text>
</g>
<!-- CurrentUser -->
<g id="node3" class="node">
<title>CurrentUser</title>
<polygon fill="none" stroke="black" points="130.92,-42.5 130.92,-64.5 224.92,-64.5 224.92,-42.5 130.92,-42.5"/>
<text text-anchor="start" x="143.33" y="-48.9" font-family="Times,serif" font-size="14.00">CurrentUser</text>
<polygon fill="none" stroke="black" points="130.92,-3.5 130.92,-42.5 224.92,-42.5 224.92,-3.5 130.92,-3.5"/>
<text text-anchor="start" x="133.92" y="-26.9" font-family="Times,serif" font-size="14.00">name :String</text>
<text text-anchor="start" x="133.92" y="-10.1" font-family="Times,serif" font-size="14.00">userKey :String</text>
</g>
<!-- CurrentUser&#45;&gt;Channel -->
<g id="edge4" class="edge">
<title>CurrentUser&#45;&gt;Channel</title>
<path fill="none" stroke="black" d="M141.59,-69.26C126.56,-83.23 109.15,-99.4 94.13,-113.36"/>
<text text-anchor="middle" x="56.22" y="-100.76" font-family="Times,serif" font-size="14.00">privateChat *</text>
<text text-anchor="middle" x="174.63" y="-73.46" font-family="Times,serif" font-size="14.00">currentUser</text>
</g>
<!-- CurrentUser&#45;&gt;Server -->
<g id="edge5" class="edge">
<title>CurrentUser&#45;&gt;Server</title>
<path fill="none" stroke="black" d="M176.11,-69.26C175.51,-80.41 174.83,-92.96 174.2,-104.67"/>
<text text-anchor="middle" x="151.85" y="-92.07" font-family="Times,serif" font-size="14.00">server *</text>
<text text-anchor="middle" x="209.14" y="-73.46" font-family="Times,serif" font-size="14.00">currentUser</text>
</g>
<!-- User -->
<g id="node6" class="node">
<title>User</title>
<polygon fill="none" stroke="black" points="171.92,-287 171.92,-309 260.92,-309 260.92,-287 171.92,-287"/>
<text text-anchor="start" x="203.21" y="-293.4" font-family="Times,serif" font-size="14.00">User</text>
<polygon fill="none" stroke="black" points="171.92,-231 171.92,-287 260.92,-287 260.92,-231 171.92,-231"/>
<text text-anchor="start" x="174.92" y="-271.4" font-family="Times,serif" font-size="14.00">name :String</text>
<text text-anchor="start" x="174.92" y="-254.6" font-family="Times,serif" font-size="14.00">id :String</text>
<text text-anchor="start" x="174.92" y="-237.8" font-family="Times,serif" font-size="14.00">status :boolean</text>
</g>
<!-- CurrentUser&#45;&gt;User -->
<g id="edge6" class="edge">
<title>CurrentUser&#45;&gt;User</title>
<path fill="none" stroke="black" d="M209.76,-69.04C217.94,-79.72 225.64,-92.13 229.92,-105 243.18,-144.86 236.6,-193.02 228.59,-226.8"/>
<text text-anchor="middle" x="245.5" y="-214.2" font-family="Times,serif" font-size="14.00">user *</text>
<text text-anchor="middle" x="242.79" y="-56.44" font-family="Times,serif" font-size="14.00">currentUser</text>
</g>
<!-- Server&#45;&gt;User -->
<g id="edge7" class="edge">
<title>Server&#45;&gt;User</title>
<path fill="none" stroke="black" d="M187.44,-191.31C191.64,-202.78 196.2,-215.2 200.4,-226.67"/>
<text text-anchor="middle" x="183.49" y="-214.07" font-family="Times,serif" font-size="14.00">user *</text>
<text text-anchor="middle" x="165.09" y="-195.51" font-family="Times,serif" font-size="14.00">server *</text>
</g>
</g>
</svg>
