<svg width="301px" height="321px"
 viewBox="0.00 0.00 300.63 321.00" xmlns="http://www.w3.org/2000/svg" xmlns:xlink="http://www.w3.org/1999/xlink">
<g id="graph0" class="graph" transform="scale(1.0 1.0) rotate(0) translate(4 317)">
<title>de.uniks.stp.model</title>
<polygon fill="white" stroke="transparent" points="-4,4 -4,-317 296.63,-317 296.63,4 -4,4"/>
<!-- Categories -->
<g id="node1" class="node">
<title>Categories</title>
<polygon fill="none" stroke="black" points="28.5,-42.5 28.5,-64.5 105.5,-64.5 105.5,-42.5 28.5,-42.5"/>
<text text-anchor="start" x="37.07" y="-48.9" font-family="Times,serif" font-size="14.00">Categories</text>
<polygon fill="none" stroke="black" points="28.5,-3.5 28.5,-42.5 105.5,-42.5 105.5,-3.5 28.5,-3.5"/>
<text text-anchor="start" x="31.5" y="-26.9" font-family="Times,serif" font-size="14.00">name :String</text>
<text text-anchor="start" x="31.5" y="-10.1" font-family="Times,serif" font-size="14.00">id :String</text>
</g>
<!-- Channel -->
<g id="node2" class="node">
<title>Channel</title>
<polygon fill="none" stroke="black" points="8.5,-165 8.5,-187 115.5,-187 115.5,-165 8.5,-165"/>
<text text-anchor="start" x="38.67" y="-171.4" font-family="Times,serif" font-size="14.00">Channel</text>
<polygon fill="none" stroke="black" points="8.5,-109 8.5,-165 115.5,-165 115.5,-109 8.5,-109"/>
<text text-anchor="start" x="11.5" y="-149.4" font-family="Times,serif" font-size="14.00">name :String</text>
<text text-anchor="start" x="11.5" y="-132.6" font-family="Times,serif" font-size="14.00">id :String</text>
<text text-anchor="start" x="11.5" y="-115.8" font-family="Times,serif" font-size="14.00">privilege :boolean</text>
</g>
<!-- Categories&#45;&gt;Channel -->
<g id="edge1" class="edge">
<title>Categories&#45;&gt;Channel</title>
<path fill="none" stroke="black" d="M64.99,-69.26C64.49,-80.41 63.92,-92.96 63.4,-104.67"/>
<text text-anchor="middle" x="36.38" y="-92.07" font-family="Times,serif" font-size="14.00">channel *</text>
<text text-anchor="middle" x="36.61" y="-73.46" font-family="Times,serif" font-size="14.00">categories</text>
</g>
<!-- Server -->
<g id="node5" class="node">
<title>Server</title>
<polygon fill="none" stroke="black" points="149.5,-165 149.5,-187 231.5,-187 231.5,-165 149.5,-165"/>
<text text-anchor="start" x="172.23" y="-171.4" font-family="Times,serif" font-size="14.00">Server</text>
<polygon fill="none" stroke="black" points="149.5,-109 149.5,-165 231.5,-165 231.5,-109 149.5,-109"/>
<text text-anchor="start" x="152.5" y="-149.4" font-family="Times,serif" font-size="14.00">name :String</text>
<text text-anchor="start" x="152.5" y="-132.6" font-family="Times,serif" font-size="14.00">id :String</text>
<text text-anchor="start" x="152.5" y="-115.8" font-family="Times,serif" font-size="14.00">owner :String</text>
</g>
<!-- Categories&#45;&gt;Server -->
<g id="edge2" class="edge">
<title>Categories&#45;&gt;Server</title>
<path fill="none" stroke="black" d="M104.04,-69.26C116.44,-80.41 130.4,-92.96 143.43,-104.67"/>
<text text-anchor="middle" x="126.33" y="-92.07" font-family="Times,serif" font-size="14.00">server</text>
<text text-anchor="middle" x="137.66" y="-73.46" font-family="Times,serif" font-size="14.00">categories *</text>
</g>
<!-- Message -->
<g id="node4" class="node">
<title>Message</title>
<polygon fill="none" stroke="black" points="14.5,-287 14.5,-309 109.5,-309 109.5,-287 14.5,-287"/>
<text text-anchor="start" x="37.51" y="-293.4" font-family="Times,serif" font-size="14.00">Message</text>
<polygon fill="none" stroke="black" points="14.5,-231 14.5,-287 109.5,-287 109.5,-231 14.5,-231"/>
<text text-anchor="start" x="17.5" y="-271.4" font-family="Times,serif" font-size="14.00">from :String</text>
<text text-anchor="start" x="17.5" y="-254.6" font-family="Times,serif" font-size="14.00">timestamp :int</text>
<text text-anchor="start" x="17.5" y="-237.8" font-family="Times,serif" font-size="14.00">message :String</text>
</g>
<!-- Channel&#45;&gt;Message -->
<g id="edge3" class="edge">
<title>Channel&#45;&gt;Message</title>
<path fill="none" stroke="black" d="M61.5,-191.31C61.5,-202.78 61.5,-215.2 61.5,-226.67"/>
<text text-anchor="middle" x="32.54" y="-214.07" font-family="Times,serif" font-size="14.00">message *</text>
<text text-anchor="middle" x="39.73" y="-195.51" font-family="Times,serif" font-size="14.00">channel</text>
</g>
<!-- CurrentUser -->
<g id="node3" class="node">
<title>CurrentUser</title>
<polygon fill="none" stroke="black" points="143.5,-42.5 143.5,-64.5 237.5,-64.5 237.5,-42.5 143.5,-42.5"/>
<text text-anchor="start" x="155.91" y="-48.9" font-family="Times,serif" font-size="14.00">CurrentUser</text>
<polygon fill="none" stroke="black" points="143.5,-3.5 143.5,-42.5 237.5,-42.5 237.5,-3.5 143.5,-3.5"/>
<text text-anchor="start" x="146.5" y="-26.9" font-family="Times,serif" font-size="14.00">name :String</text>
<text text-anchor="start" x="146.5" y="-10.1" font-family="Times,serif" font-size="14.00">userKey :String</text>
</g>
<!-- CurrentUser&#45;&gt;Channel -->
<g id="edge4" class="edge">
<title>CurrentUser&#45;&gt;Channel</title>
<path fill="none" stroke="black" d="M151.45,-69.26C138.54,-80.41 124.02,-92.96 110.47,-104.67"/>
<text text-anchor="middle" x="148.38" y="-92.07" font-family="Times,serif" font-size="14.00">privateChat *</text>
<text text-anchor="middle" x="184.48" y="-73.46" font-family="Times,serif" font-size="14.00">currentUser</text>
</g>
<!-- CurrentUser&#45;&gt;Server -->
<g id="edge5" class="edge">
<title>CurrentUser&#45;&gt;Server</title>
<path fill="none" stroke="black" d="M190.5,-69.26C190.5,-80.41 190.5,-92.96 190.5,-104.67"/>
<text text-anchor="middle" x="212.85" y="-92.07" font-family="Times,serif" font-size="14.00">server *</text>
<text text-anchor="middle" x="223.53" y="-73.46" font-family="Times,serif" font-size="14.00">currentUser</text>
</g>
<!-- User -->
<g id="node6" class="node">
<title>User</title>
<polygon fill="none" stroke="black" points="184.5,-287 184.5,-309 273.5,-309 273.5,-287 184.5,-287"/>
<text text-anchor="start" x="215.79" y="-293.4" font-family="Times,serif" font-size="14.00">User</text>
<polygon fill="none" stroke="black" points="184.5,-231 184.5,-287 273.5,-287 273.5,-231 184.5,-231"/>
<text text-anchor="start" x="187.5" y="-271.4" font-family="Times,serif" font-size="14.00">name :String</text>
<text text-anchor="start" x="187.5" y="-254.6" font-family="Times,serif" font-size="14.00">id :String</text>
<text text-anchor="start" x="187.5" y="-237.8" font-family="Times,serif" font-size="14.00">status :boolean</text>
</g>
<!-- CurrentUser&#45;&gt;User -->
<g id="edge6" class="edge">
<title>CurrentUser&#45;&gt;User</title>
<path fill="none" stroke="black" d="M226.56,-69.21C235.46,-79.72 243.79,-92 248.5,-105 262.87,-144.64 254.14,-192.83 244.1,-226.68"/>
<text text-anchor="middle" x="261.01" y="-214.08" font-family="Times,serif" font-size="14.00">user *</text>
<text text-anchor="middle" x="259.6" y="-56.61" font-family="Times,serif" font-size="14.00">currentUser</text>
</g>
<!-- Server&#45;&gt;User -->
<g id="edge7" class="edge">
<title>Server&#45;&gt;User</title>
<path fill="none" stroke="black" d="M203.9,-191.31C207.53,-202.78 211.46,-215.2 215.1,-226.67"/>
<text text-anchor="middle" x="198.19" y="-214.07" font-family="Times,serif" font-size="14.00">user *</text>
<text text-anchor="middle" x="181.55" y="-195.51" font-family="Times,serif" font-size="14.00">server *</text>
</g>
</g>
</svg>
