<svg width="361px" height="355px"
 viewBox="0.00 0.00 361.40 355.00" xmlns="http://www.w3.org/2000/svg" xmlns:xlink="http://www.w3.org/1999/xlink">
<g id="graph0" class="graph" transform="scale(1.0 1.0) rotate(0) translate(4 351)">
<title>de.uniks.stp.model</title>
<polygon fill="white" stroke="transparent" points="-4,4 -4,-351 357.4,-351 357.4,4 -4,4"/>
<!-- Categories -->
<g id="node1" class="node">
<title>Categories</title>
<polygon fill="none" stroke="black" points="70.5,-51 70.5,-73 147.5,-73 147.5,-51 70.5,-51"/>
<text text-anchor="start" x="79.07" y="-57.4" font-family="Times,serif" font-size="14.00">Categories</text>
<polygon fill="none" stroke="black" points="70.5,-12 70.5,-51 147.5,-51 147.5,-12 70.5,-12"/>
<text text-anchor="start" x="73.5" y="-35.4" font-family="Times,serif" font-size="14.00">name :String</text>
<text text-anchor="start" x="73.5" y="-18.6" font-family="Times,serif" font-size="14.00">id :String</text>
</g>
<!-- Channel -->
<g id="node2" class="node">
<title>Channel</title>
<polygon fill="none" stroke="black" points="8.5,-198.5 8.5,-220.5 173.5,-220.5 173.5,-198.5 8.5,-198.5"/>
<text text-anchor="start" x="67.67" y="-204.9" font-family="Times,serif" font-size="14.00">Channel</text>
<polygon fill="none" stroke="black" points="8.5,-125.5 8.5,-198.5 173.5,-198.5 173.5,-125.5 8.5,-125.5"/>
<text text-anchor="start" x="11.5" y="-182.9" font-family="Times,serif" font-size="14.00">name :String</text>
<text text-anchor="start" x="11.5" y="-166.1" font-family="Times,serif" font-size="14.00">id :String</text>
<text text-anchor="start" x="11.5" y="-149.3" font-family="Times,serif" font-size="14.00">unreadMessagesCounter :int</text>
<text text-anchor="start" x="11.5" y="-132.5" font-family="Times,serif" font-size="14.00">privilege :boolean</text>
</g>
<!-- Categories&#45;&gt;Channel -->
<g id="edge1" class="edge">
<title>Categories&#45;&gt;Channel</title>
<path fill="none" stroke="black" d="M103.77,-77.76C101.9,-91.15 99.7,-106.83 97.64,-121.54"/>
<text text-anchor="middle" x="70.62" y="-108.94" font-family="Times,serif" font-size="14.00">channel *</text>
<text text-anchor="middle" x="75.4" y="-81.96" font-family="Times,serif" font-size="14.00">categories</text>
</g>
<!-- Server -->
<g id="node5" class="node">
<title>Server</title>
<polygon fill="none" stroke="black" points="207.5,-190.5 207.5,-212.5 289.5,-212.5 289.5,-190.5 207.5,-190.5"/>
<text text-anchor="start" x="230.23" y="-196.9" font-family="Times,serif" font-size="14.00">Server</text>
<polygon fill="none" stroke="black" points="207.5,-134.5 207.5,-190.5 289.5,-190.5 289.5,-134.5 207.5,-134.5"/>
<text text-anchor="start" x="210.5" y="-174.9" font-family="Times,serif" font-size="14.00">name :String</text>
<text text-anchor="start" x="210.5" y="-158.1" font-family="Times,serif" font-size="14.00">id :String</text>
<text text-anchor="start" x="210.5" y="-141.3" font-family="Times,serif" font-size="14.00">owner :String</text>
</g>
<!-- Categories&#45;&gt;Server -->
<g id="edge2" class="edge">
<title>Categories&#45;&gt;Server</title>
<path fill="none" stroke="black" d="M145.28,-77.76C162.86,-93.9 184.08,-113.37 202.7,-130.46"/>
<text text-anchor="middle" x="219.8" y="-117.86" font-family="Times,serif" font-size="14.00">server</text>
<text text-anchor="middle" x="145.28" y="-81.96" font-family="Times,serif" font-size="14.00">categories *</text>
</g>
<!-- Message -->
<g id="node4" class="node">
<title>Message</title>
<polygon fill="none" stroke="black" points="42.5,-321 42.5,-343 138.5,-343 138.5,-321 42.5,-321"/>
<text text-anchor="start" x="66.01" y="-327.4" font-family="Times,serif" font-size="14.00">Message</text>
<polygon fill="none" stroke="black" points="42.5,-265 42.5,-321 138.5,-321 138.5,-265 42.5,-265"/>
<text text-anchor="start" x="45.5" y="-305.4" font-family="Times,serif" font-size="14.00">from :String</text>
<text text-anchor="start" x="45.5" y="-288.6" font-family="Times,serif" font-size="14.00">timestamp :long</text>
<text text-anchor="start" x="45.5" y="-271.8" font-family="Times,serif" font-size="14.00">message :String</text>
</g>
<!-- Channel&#45;&gt;Message -->
<g id="edge3" class="edge">
<title>Channel&#45;&gt;Message</title>
<path fill="none" stroke="black" d="M90.5,-225.29C90.5,-237.07 90.5,-249.49 90.5,-260.86"/>
<text text-anchor="middle" x="61.54" y="-248.26" font-family="Times,serif" font-size="14.00">message *</text>
<text text-anchor="middle" x="68.73" y="-229.49" font-family="Times,serif" font-size="14.00">channel</text>
</g>
<!-- CurrentUser -->
<g id="node3" class="node">
<title>CurrentUser</title>
<polygon fill="none" stroke="black" points="198.5,-60 198.5,-82 298.5,-82 298.5,-60 198.5,-60"/>
<text text-anchor="start" x="213.91" y="-66.4" font-family="Times,serif" font-size="14.00">CurrentUser</text>
<polygon fill="none" stroke="black" points="198.5,-4 198.5,-60 298.5,-60 298.5,-4 198.5,-4"/>
<text text-anchor="start" x="201.5" y="-44.4" font-family="Times,serif" font-size="14.00">name :String</text>
<text text-anchor="start" x="201.5" y="-27.6" font-family="Times,serif" font-size="14.00">userKey :String</text>
<text text-anchor="start" x="201.5" y="-10.8" font-family="Times,serif" font-size="14.00">password :String</text>
</g>
<!-- CurrentUser&#45;&gt;Channel -->
<g id="edge4" class="edge">
<title>CurrentUser&#45;&gt;Channel</title>
<path fill="none" stroke="black" d="M196.76,-86.08C182.73,-97.49 167.38,-109.98 152.82,-121.82"/>
<text text-anchor="middle" x="190.72" y="-109.22" font-family="Times,serif" font-size="14.00">privateChat *</text>
<text text-anchor="middle" x="229.8" y="-90.28" font-family="Times,serif" font-size="14.00">currentUser</text>
</g>
<!-- CurrentUser&#45;&gt;Server -->
<g id="edge5" class="edge">
<title>CurrentUser&#45;&gt;Server</title>
<path fill="none" stroke="black" d="M248.5,-86.08C248.5,-100.28 248.5,-116.12 248.5,-130.33"/>
<text text-anchor="middle" x="270.85" y="-117.73" font-family="Times,serif" font-size="14.00">server *</text>
<text text-anchor="middle" x="281.53" y="-90.28" font-family="Times,serif" font-size="14.00">currentUser</text>
</g>
<!-- User -->
<g id="node6" class="node">
<title>User</title>
<polygon fill="none" stroke="black" points="242.5,-321 242.5,-343 331.5,-343 331.5,-321 242.5,-321"/>
<text text-anchor="start" x="273.79" y="-327.4" font-family="Times,serif" font-size="14.00">User</text>
<polygon fill="none" stroke="black" points="242.5,-265 242.5,-321 331.5,-321 331.5,-265 242.5,-265"/>
<text text-anchor="start" x="245.5" y="-305.4" font-family="Times,serif" font-size="14.00">name :String</text>
<text text-anchor="start" x="245.5" y="-288.6" font-family="Times,serif" font-size="14.00">id :String</text>
<text text-anchor="start" x="245.5" y="-271.8" font-family="Times,serif" font-size="14.00">status :boolean</text>
</g>
<!-- CurrentUser&#45;&gt;User -->
<g id="edge6" class="edge">
<title>CurrentUser&#45;&gt;User</title>
<path fill="none" stroke="black" d="M287.33,-86.15C295.18,-97.07 302.31,-109.34 306.5,-122 321.7,-167.92 311.59,-223.6 300.99,-260.98"/>
<text text-anchor="middle" x="317.9" y="-248.38" font-family="Times,serif" font-size="14.00">user *</text>
<text text-anchor="middle" x="320.36" y="-73.55" font-family="Times,serif" font-size="14.00">currentUser</text>
</g>
<!-- Server&#45;&gt;User -->
<g id="edge7" class="edge">
<title>Server&#45;&gt;User</title>
<path fill="none" stroke="black" d="M260.94,-216.58C265.14,-230.78 269.83,-246.62 274.03,-260.83"/>
<text text-anchor="middle" x="257.12" y="-248.23" font-family="Times,serif" font-size="14.00">user *</text>
<text text-anchor="middle" x="238.6" y="-220.78" font-family="Times,serif" font-size="14.00">server *</text>
</g>
</g>
</svg>
